<svg aria-roledescription="er" viewBox="0 0 475.694091796875 554" style="max-width: 475.694px; background-color: white;" xmlns:xlink="http://www.w3.org/1999/xlink" xmlns="http://www.w3.org/2000/svg" width="100%" id="mermaid-0"><style>#mermaid-0{font-family:"trebuchet ms",verdana,arial,sans-serif;font-size:16px;fill:#000000;}#mermaid-0 .error-icon{fill:#552222;}#mermaid-0 .error-text{fill:#552222;stroke:#552222;}#mermaid-0 .edge-thickness-normal{stroke-width:2px;}#mermaid-0 .edge-thickness-thick{stroke-width:3.5px;}#mermaid-0 .edge-pattern-solid{stroke-dasharray:0;}#mermaid-0 .edge-pattern-dashed{stroke-dasharray:3;}#mermaid-0 .edge-pattern-dotted{stroke-dasharray:2;}#mermaid-0 .marker{fill:#000000;stroke:#000000;}#mermaid-0 .marker.cross{stroke:#000000;}#mermaid-0 svg{font-family:"trebuchet ms",verdana,arial,sans-serif;font-size:16px;}#mermaid-0 .entityBox{fill:#cde498;stroke:#13540c;}#mermaid-0 .attributeBoxOdd{fill:#ffffff;stroke:#13540c;}#mermaid-0 .attributeBoxEven{fill:#f2f2f2;stroke:#13540c;}#mermaid-0 .relationshipLabelBox{fill:hsl(78.1578947368, 58.4615384615%, 84.5098039216%);opacity:0.7;background-color:hsl(78.1578947368, 58.4615384615%, 84.5098039216%);}#mermaid-0 .relationshipLabelBox rect{opacity:0.5;}#mermaid-0 .relationshipLine{stroke:#000000;}#mermaid-0 .entityTitleText{text-anchor:middle;font-size:18px;fill:#000000;}#mermaid-0 :root{--mermaid-font-family:"trebuchet ms",verdana,arial,sans-serif;}</style><g/><defs><marker orient="auto" markerHeight="18" markerWidth="18" refY="9" refX="0" id="ONLY_ONE_START"><path d="M9,0 L9,18 M15,0 L15,18" fill="none" stroke="gray"/></marker></defs><defs><marker orient="auto" markerHeight="18" markerWidth="18" refY="9" refX="18" id="ONLY_ONE_END"><path d="M3,0 L3,18 M9,0 L9,18" fill="none" stroke="gray"/></marker></defs><defs><marker orient="auto" markerHeight="18" markerWidth="30" refY="9" refX="0" id="ZERO_OR_ONE_START"><circle r="6" cy="9" cx="21" fill="white" stroke="gray"/><path d="M9,0 L9,18" fill="none" stroke="gray"/></marker></defs><defs><marker orient="auto" markerHeight="18" markerWidth="30" refY="9" refX="30" id="ZERO_OR_ONE_END"><circle r="6" cy="9" cx="9" fill="white" stroke="gray"/><path d="M21,0 L21,18" fill="none" stroke="gray"/></marker></defs><defs><marker orient="auto" markerHeight="36" markerWidth="45" refY="18" refX="18" id="ONE_OR_MORE_START"><path d="M0,18 Q 18,0 36,18 Q 18,36 0,18 M42,9 L42,27" fill="none" stroke="gray"/></marker></defs><defs><marker orient="auto" markerHeight="36" markerWidth="45" refY="18" refX="27" id="ONE_OR_MORE_END"><path d="M3,9 L3,27 M9,18 Q27,0 45,18 Q27,36 9,18" fill="none" stroke="gray"/></marker></defs><defs><marker orient="auto" markerHeight="36" markerWidth="57" refY="18" refX="18" id="ZERO_OR_MORE_START"><circle r="6" cy="18" cx="48" fill="white" stroke="gray"/><path d="M0,18 Q18,0 36,18 Q18,36 0,18" fill="none" stroke="gray"/></marker></defs><defs><marker orient="auto" markerHeight="36" markerWidth="57" refY="18" refX="39" id="ZERO_OR_MORE_END"><circle r="6" cy="18" cx="9" fill="white" stroke="gray"/><path d="M21,18 Q39,0 57,18 Q39,36 21,18" fill="none" stroke="gray"/></marker></defs><path style="stroke: gray; fill: none;" marker-start="url(#ZERO_OR_MORE_START)" marker-end="url(#ZERO_OR_ONE_END)" d="M133.5751953125,278L133.5751953125,286.3333333333333C133.5751953125,294.6666666666667,133.5751953125,311.3333333333333,133.5751953125,328C133.5751953125,344.6666666666667,133.5751953125,361.3333333333333,133.5751953125,369.6666666666667L133.5751953125,378" class="er relationshipLine"/><path style="stroke: gray; fill: none;" marker-start="url(#ZERO_OR_MORE_START)" marker-end="url(#ONLY_ONE_END)" d="M83.5751953125,88L83.5751953125,96.33333333333333C83.5751953125,104.66666666666667,83.5751953125,121.33333333333333,87.9611602247807,138C92.34712513706141,154.66666666666666,101.11905496162281,171.33333333333334,105.5050198739035,179.66666666666666L109.8909847861842,188" class="er relationshipLine"/><path style="stroke: gray; fill: none;" marker-start="url(#ZERO_OR_MORE_START)" marker-end="url(#ONLY_ONE_END)" d="M365.45003582182386,77L371.5016231234111,87.16666666666667C377.55321042499844,97.33333333333333,389.656385028173,117.66666666666667,395.70797232976037,138C401.75955963134766,158.33333333333334,401.75955963134766,178.66666666666666,401.75955963134766,188.83333333333334L401.75955963134766,199" class="er relationshipLine"/><path style="stroke: gray; fill: none;" marker-start="url(#ZERO_OR_MORE_START)" marker-end="url(#ONLY_ONE_END)" d="M321.25806399754117,77L307.775518826076,87.16666666666667C294.29297365461076,97.33333333333333,267.3278833116804,117.66666666666667,244.478005012474,136.16666666666666C221.62812671326753,154.66666666666666,202.89346045778507,171.33333333333334,193.52612733004386,179.66666666666666L184.15879420230263,188" class="er relationshipLine"/><g transform="translate(64.7161865234375,188 )" id="entity-habits-141a7cd4-08e9-437b-a85d-052dae9667a0"><rect height="90" width="137.718017578125" y="0" x="0" class="er entityBox"/><text style="dominant-baseline: middle; text-anchor: middle; font-size: 12px;" transform="translate(68.8590087890625,12)" y="0" x="0" id="text-entity-habits-141a7cd4-08e9-437b-a85d-052dae9667a0" class="er entityLabel">habits</text><rect height="22" width="54.095550537109375" y="24" x="0" class="er attributeBoxOdd"/><text style="dominant-baseline: middle; font-size: 10.2px;" transform="translate(5,35)" y="0" x="0" id="text-entity-habits-141a7cd4-08e9-437b-a85d-052dae9667a0-attr-1-type" class="er entityLabel">String</text><rect height="22" width="60.934783935546875" y="24" x="54.095550537109375" class="er attributeBoxOdd"/><text style="dominant-baseline: middle; font-size: 10.2px;" transform="translate(59.095550537109375,35)" y="0" x="0" id="text-entity-habits-141a7cd4-08e9-437b-a85d-052dae9667a0-attr-1-name" class="er entityLabel">id</text><rect height="22" width="22.68768310546875" y="24" x="115.03033447265625" class="er attributeBoxOdd"/><text style="dominant-baseline: middle; font-size: 10.2px;" transform="translate(120.03033447265625,35)" y="0" x="0" id="text-entity-habits-141a7cd4-08e9-437b-a85d-052dae9667a0-attr-1-key" class="er entityLabel">PK</text><rect height="22" width="54.095550537109375" y="46" x="0" class="er attributeBoxEven"/><text style="dominant-baseline: middle; font-size: 10.2px;" transform="translate(5,57)" y="0" x="0" id="text-entity-habits-141a7cd4-08e9-437b-a85d-052dae9667a0-attr-2-type" class="er entityLabel">String</text><rect height="22" width="60.934783935546875" y="46" x="54.095550537109375" class="er attributeBoxEven"/><text style="dominant-baseline: middle; font-size: 10.2px;" transform="translate(59.095550537109375,57)" y="0" x="0" id="text-entity-habits-141a7cd4-08e9-437b-a85d-052dae9667a0-attr-2-name" class="er entityLabel">title</text><rect height="22" width="22.68768310546875" y="46" x="115.03033447265625" class="er attributeBoxEven"/><text style="dominant-baseline: middle; font-size: 10.2px;" transform="translate(120.03033447265625,57)" y="0" x="0" id="text-entity-habits-141a7cd4-08e9-437b-a85d-052dae9667a0-attr-2-key" class="er entityLabel"/><rect height="22" width="54.095550537109375" y="68" x="0" class="er attributeBoxOdd"/><text style="dominant-baseline: middle; font-size: 10.2px;" transform="translate(5,79)" y="0" x="0" id="text-entity-habits-141a7cd4-08e9-437b-a85d-052dae9667a0-attr-3-type" class="er entityLabel">DateTime</text><rect height="22" width="60.934783935546875" y="68" x="54.095550537109375" class="er attributeBoxOdd"/><text style="dominant-baseline: middle; font-size: 10.2px;" transform="translate(59.095550537109375,79)" y="0" x="0" id="text-entity-habits-141a7cd4-08e9-437b-a85d-052dae9667a0-attr-3-name" class="er entityLabel">created_at</text><rect height="22" width="22.68768310546875" y="68" x="115.03033447265625" class="er attributeBoxOdd"/><text style="dominant-baseline: middle; font-size: 10.2px;" transform="translate(120.03033447265625,79)" y="0" x="0" id="text-entity-habits-141a7cd4-08e9-437b-a85d-052dae9667a0-attr-3-key" class="er entityLabel"/></g><g transform="translate(20,20 )" id="entity-habitsweekdays-fcaaa517-b135-4c68-82a7-f5ae8044a2e3"><rect height="68" width="127.150390625" y="0" x="0" class="er entityBox"/><text style="dominant-baseline: middle; text-anchor: middle; font-size: 12px;" transform="translate(63.5751953125,12)" y="0" x="0" id="text-entity-habitsweekdays-fcaaa517-b135-4c68-82a7-f5ae8044a2e3" class="er entityLabel">habits_week_days</text><rect height="22" width="40.6675771077474" y="24" x="0" class="er attributeBoxOdd"/><text style="dominant-baseline: middle; font-size: 10.2px;" transform="translate(5,35)" y="0" x="0" id="text-entity-habitsweekdays-fcaaa517-b135-4c68-82a7-f5ae8044a2e3-attr-1-type" class="er entityLabel">String</text><rect height="22" width="60.52361043294271" y="24" x="40.6675771077474" class="er attributeBoxOdd"/><text style="dominant-baseline: middle; font-size: 10.2px;" transform="translate(45.6675771077474,35)" y="0" x="0" id="text-entity-habitsweekdays-fcaaa517-b135-4c68-82a7-f5ae8044a2e3-attr-1-name" class="er entityLabel">id</text><rect height="22" width="25.959203084309895" y="24" x="101.19118754069011" class="er attributeBoxOdd"/><text style="dominant-baseline: middle; font-size: 10.2px;" transform="translate(106.19118754069011,35)" y="0" x="0" id="text-entity-habitsweekdays-fcaaa517-b135-4c68-82a7-f5ae8044a2e3-attr-1-key" class="er entityLabel">PK</text><rect height="22" width="40.6675771077474" y="46" x="0" class="er attributeBoxEven"/><text style="dominant-baseline: middle; font-size: 10.2px;" transform="translate(5,57)" y="0" x="0" id="text-entity-habitsweekdays-fcaaa517-b135-4c68-82a7-f5ae8044a2e3-attr-2-type" class="er entityLabel">Int</text><rect height="22" width="60.52361043294271" y="46" x="40.6675771077474" class="er attributeBoxEven"/><text style="dominant-baseline: middle; font-size: 10.2px;" transform="translate(45.6675771077474,57)" y="0" x="0" id="text-entity-habitsweekdays-fcaaa517-b135-4c68-82a7-f5ae8044a2e3-attr-2-name" class="er entityLabel">week_day</text><rect height="22" width="25.959203084309895" y="46" x="101.19118754069011" class="er attributeBoxEven"/><text style="dominant-baseline: middle; font-size: 10.2px;" transform="translate(106.19118754069011,57)" y="0" x="0" id="text-entity-habitsweekdays-fcaaa517-b135-4c68-82a7-f5ae8044a2e3-attr-2-key" class="er entityLabel"/></g><g transform="translate(347.82503509521484,199 )" id="entity-days-45559b65-ed19-473a-a05c-271cfc2c347b"><rect height="68" width="107.86904907226562" y="0" x="0" class="er entityBox"/><text style="dominant-baseline: middle; text-anchor: middle; font-size: 12px;" transform="translate(53.93452453613281,12)" y="0" x="0" id="text-entity-days-45559b65-ed19-473a-a05c-271cfc2c347b" class="er entityLabel">days</text><rect height="22" width="54.095550537109375" y="24" x="0" class="er attributeBoxOdd"/><text style="dominant-baseline: middle; font-size: 10.2px;" transform="translate(5,35)" y="0" x="0" id="text-entity-days-45559b65-ed19-473a-a05c-271cfc2c347b-attr-1-type" class="er entityLabel">String</text><rect height="22" width="31.0858154296875" y="24" x="54.095550537109375" class="er attributeBoxOdd"/><text style="dominant-baseline: middle; font-size: 10.2px;" transform="translate(59.095550537109375,35)" y="0" x="0" id="text-entity-days-45559b65-ed19-473a-a05c-271cfc2c347b-attr-1-name" class="er entityLabel">id</text><rect height="22" width="22.68768310546875" y="24" x="85.18136596679688" class="er attributeBoxOdd"/><text style="dominant-baseline: middle; font-size: 10.2px;" transform="translate(90.18136596679688,35)" y="0" x="0" id="text-entity-days-45559b65-ed19-473a-a05c-271cfc2c347b-attr-1-key" class="er entityLabel">PK</text><rect height="22" width="54.095550537109375" y="46" x="0" class="er attributeBoxEven"/><text style="dominant-baseline: middle; font-size: 10.2px;" transform="translate(5,57)" y="0" x="0" id="text-entity-days-45559b65-ed19-473a-a05c-271cfc2c347b-attr-2-type" class="er entityLabel">DateTime</text><rect height="22" width="31.0858154296875" y="46" x="54.095550537109375" class="er attributeBoxEven"/><text style="dominant-baseline: middle; font-size: 10.2px;" transform="translate(59.095550537109375,57)" y="0" x="0" id="text-entity-days-45559b65-ed19-473a-a05c-271cfc2c347b-attr-2-name" class="er entityLabel">date</text><rect height="22" width="22.68768310546875" y="46" x="85.18136596679688" class="er attributeBoxEven"/><text style="dominant-baseline: middle; font-size: 10.2px;" transform="translate(90.18136596679688,57)" y="0" x="0" id="text-entity-days-45559b65-ed19-473a-a05c-271cfc2c347b-attr-2-key" class="er entityLabel"/></g><g transform="translate(301.75955963134766,31 )" id="entity-dayhabits-6115e4dd-d51b-41a8-97ef-4d85aad45f4d"><rect height="46" width="100" y="0" x="0" class="er entityBox"/><text style="dominant-baseline: middle; text-anchor: middle; font-size: 12px;" transform="translate(50,12)" y="0" x="0" id="text-entity-dayhabits-6115e4dd-d51b-41a8-97ef-4d85aad45f4d" class="er entityLabel">day_habits</text><rect height="22" width="44.39861551920573" y="24" x="0" class="er attributeBoxOdd"/><text style="dominant-baseline: middle; font-size: 10.2px;" transform="translate(5,35)" y="0" x="0" id="text-entity-dayhabits-6115e4dd-d51b-41a8-97ef-4d85aad45f4d-attr-1-type" class="er entityLabel">String</text><rect height="22" width="25.911142985026043" y="24" x="44.39861551920573" class="er attributeBoxOdd"/><text style="dominant-baseline: middle; font-size: 10.2px;" transform="translate(49.39861551920573,35)" y="0" x="0" id="text-entity-dayhabits-6115e4dd-d51b-41a8-97ef-4d85aad45f4d-attr-1-name" class="er entityLabel">id</text><rect height="22" width="29.69024149576823" y="24" x="70.30975850423177" class="er attributeBoxOdd"/><text style="dominant-baseline: middle; font-size: 10.2px;" transform="translate(75.30975850423177,35)" y="0" x="0" id="text-entity-dayhabits-6115e4dd-d51b-41a8-97ef-4d85aad45f4d-attr-1-key" class="er entityLabel">PK</text></g><g transform="translate(61.11583709716797,378 )" id="entity-users-9d93f2d6-4f7a-4370-bdb6-7a4e249bcf7a"><rect height="156" width="144.91871643066406" y="0" x="0" class="er entityBox"/><text style="dominant-baseline: middle; text-anchor: middle; font-size: 12px;" transform="translate(72.45935821533203,12)" y="0" x="0" id="text-entity-users-9d93f2d6-4f7a-4370-bdb6-7a4e249bcf7a" class="er entityLabel">users</text><rect height="22" width="54.095550537109375" y="24" x="0" class="er attributeBoxOdd"/><text style="dominant-baseline: middle; font-size: 10.2px;" transform="translate(5,35)" y="0" x="0" id="text-entity-users-9d93f2d6-4f7a-4370-bdb6-7a4e249bcf7a-attr-1-type" class="er entityLabel">String</text><rect height="22" width="68.13548278808594" y="24" x="54.095550537109375" class="er attributeBoxOdd"/><text style="dominant-baseline: middle; font-size: 10.2px;" transform="translate(59.095550537109375,35)" y="0" x="0" id="text-entity-users-9d93f2d6-4f7a-4370-bdb6-7a4e249bcf7a-attr-1-name" class="er entityLabel">uid</text><rect height="22" width="22.68768310546875" y="24" x="122.23103332519531" class="er attributeBoxOdd"/><text style="dominant-baseline: middle; font-size: 10.2px;" transform="translate(127.23103332519531,35)" y="0" x="0" id="text-entity-users-9d93f2d6-4f7a-4370-bdb6-7a4e249bcf7a-attr-1-key" class="er entityLabel">PK</text><rect height="22" width="54.095550537109375" y="46" x="0" class="er attributeBoxEven"/><text style="dominant-baseline: middle; font-size: 10.2px;" transform="translate(5,57)" y="0" x="0" id="text-entity-users-9d93f2d6-4f7a-4370-bdb6-7a4e249bcf7a-attr-2-type" class="er entityLabel">String</text><rect height="22" width="68.13548278808594" y="46" x="54.095550537109375" class="er attributeBoxEven"/><text style="dominant-baseline: middle; font-size: 10.2px;" transform="translate(59.095550537109375,57)" y="0" x="0" id="text-entity-users-9d93f2d6-4f7a-4370-bdb6-7a4e249bcf7a-attr-2-name" class="er entityLabel">displayName</text><rect height="22" width="22.68768310546875" y="46" x="122.23103332519531" class="er attributeBoxEven"/><text style="dominant-baseline: middle; font-size: 10.2px;" transform="translate(127.23103332519531,57)" y="0" x="0" id="text-entity-users-9d93f2d6-4f7a-4370-bdb6-7a4e249bcf7a-attr-2-key" class="er entityLabel"/><rect height="22" width="54.095550537109375" y="68" x="0" class="er attributeBoxOdd"/><text style="dominant-baseline: middle; font-size: 10.2px;" transform="translate(5,79)" y="0" x="0" id="text-entity-users-9d93f2d6-4f7a-4370-bdb6-7a4e249bcf7a-attr-3-type" class="er entityLabel">String</text><rect height="22" width="68.13548278808594" y="68" x="54.095550537109375" class="er attributeBoxOdd"/><text style="dominant-baseline: middle; font-size: 10.2px;" transform="translate(59.095550537109375,79)" y="0" x="0" id="text-entity-users-9d93f2d6-4f7a-4370-bdb6-7a4e249bcf7a-attr-3-name" class="er entityLabel">email</text><rect height="22" width="22.68768310546875" y="68" x="122.23103332519531" class="er attributeBoxOdd"/><text style="dominant-baseline: middle; font-size: 10.2px;" transform="translate(127.23103332519531,79)" y="0" x="0" id="text-entity-users-9d93f2d6-4f7a-4370-bdb6-7a4e249bcf7a-attr-3-key" class="er entityLabel"/><rect height="22" width="54.095550537109375" y="90" x="0" class="er attributeBoxEven"/><text style="dominant-baseline: middle; font-size: 10.2px;" transform="translate(5,101)" y="0" x="0" id="text-entity-users-9d93f2d6-4f7a-4370-bdb6-7a4e249bcf7a-attr-4-type" class="er entityLabel">String</text><rect height="22" width="68.13548278808594" y="90" x="54.095550537109375" class="er attributeBoxEven"/><text style="dominant-baseline: middle; font-size: 10.2px;" transform="translate(59.095550537109375,101)" y="0" x="0" id="text-entity-users-9d93f2d6-4f7a-4370-bdb6-7a4e249bcf7a-attr-4-name" class="er entityLabel">photoURL</text><rect height="22" width="22.68768310546875" y="90" x="122.23103332519531" class="er attributeBoxEven"/><text style="dominant-baseline: middle; font-size: 10.2px;" transform="translate(127.23103332519531,101)" y="0" x="0" id="text-entity-users-9d93f2d6-4f7a-4370-bdb6-7a4e249bcf7a-attr-4-key" class="er entityLabel"/><rect height="22" width="54.095550537109375" y="112" x="0" class="er attributeBoxOdd"/><text style="dominant-baseline: middle; font-size: 10.2px;" transform="translate(5,123)" y="0" x="0" id="text-entity-users-9d93f2d6-4f7a-4370-bdb6-7a4e249bcf7a-attr-5-type" class="er entityLabel">DateTime</text><rect height="22" width="68.13548278808594" y="112" x="54.095550537109375" class="er attributeBoxOdd"/><text style="dominant-baseline: middle; font-size: 10.2px;" transform="translate(59.095550537109375,123)" y="0" x="0" id="text-entity-users-9d93f2d6-4f7a-4370-bdb6-7a4e249bcf7a-attr-5-name" class="er entityLabel">created_at</text><rect height="22" width="22.68768310546875" y="112" x="122.23103332519531" class="er attributeBoxOdd"/><text style="dominant-baseline: middle; font-size: 10.2px;" transform="translate(127.23103332519531,123)" y="0" x="0" id="text-entity-users-9d93f2d6-4f7a-4370-bdb6-7a4e249bcf7a-attr-5-key" class="er entityLabel"/><rect height="22" width="54.095550537109375" y="134" x="0" class="er attributeBoxEven"/><text style="dominant-baseline: middle; font-size: 10.2px;" transform="translate(5,145)" y="0" x="0" id="text-entity-users-9d93f2d6-4f7a-4370-bdb6-7a4e249bcf7a-attr-6-type" class="er entityLabel">DateTime</text><rect height="22" width="68.13548278808594" y="134" x="54.095550537109375" class="er attributeBoxEven"/><text style="dominant-baseline: middle; font-size: 10.2px;" transform="translate(59.095550537109375,145)" y="0" x="0" id="text-entity-users-9d93f2d6-4f7a-4370-bdb6-7a4e249bcf7a-attr-6-name" class="er entityLabel">updated_at</text><rect height="22" width="22.68768310546875" y="134" x="122.23103332519531" class="er attributeBoxEven"/><text style="dominant-baseline: middle; font-size: 10.2px;" transform="translate(127.23103332519531,145)" y="0" x="0" id="text-entity-users-9d93f2d6-4f7a-4370-bdb6-7a4e249bcf7a-attr-6-key" class="er entityLabel"/></g><rect height="14" width="28.84765625" y="321" x="119.1513671875" class="er relationshipLabelBox"/><text style="text-anchor: middle; dominant-baseline: middle; font-size: 12px;" y="328" x="133.5751953125" id="rel1" class="er relationshipLabel">Users</text><rect height="14" width="27.96875" y="133.108642578125" x="74.5547866821289" class="er relationshipLabelBox"/><text style="text-anchor: middle; dominant-baseline: middle; font-size: 12px;" y="140.108642578125" x="88.5391616821289" id="rel2" class="er relationshipLabel">habit</text><rect height="14" width="19.990234375" y="127.78829956054688" x="384.7077941894531" class="er relationshipLabelBox"/><text style="text-anchor: middle; dominant-baseline: middle; font-size: 12px;" y="134.78829956054688" x="394.7029113769531" id="rel3" class="er relationshipLabel">day</text><rect height="14" width="27.96875" y="123.71757507324219" x="237.2745819091797" class="er relationshipLabelBox"/><text style="text-anchor: middle; dominant-baseline: middle; font-size: 12px;" y="130.7175750732422" x="251.2589569091797" id="rel4" class="er relationshipLabel">habit</text></svg>